<svg xmlns="http://www.w3.org/2000/svg" viewBox="0 0 587.53 985"><defs><style>.cls-1,.cls-6{opacity:0.55;}.cls-2,.cls-3,.cls-6,.cls-7,.cls-8{fill:#fff;}.cls-3{opacity:0.43;}.cls-4{opacity:0.4;}.cls-5,.cls-8{opacity:0.5;}.cls-7{opacity:0.45;}.cls-9{fill:#ff931e;}.cls-10{fill:#e27910;}.cls-11{fill:#ffac15;}.cls-12{fill:#bf691b;}</style></defs><g id="Layer_2" data-name="Layer 2"><g id="hand"><g class="cls-1"><path class="cls-2" d="M381,984.4c.07,0,.08.06,0,.1A.44.44,0,0,1,381,984.4Z"/><path class="cls-2" d="M234,577.42c2.93,13.31,6.18,27.8,8.63,39.15,2.37,17.46,6.6,36,16.72,51a41.62,41.62,0,0,0,8.07,8.69c1.2,1.42.57,3.79,2,5.43.7.87,2.13.82,3,.79,3.21.15,6.89.7,10.2-.05s6.71-1.39,9.86-2.3c4.46-1.14,10-3.6,9.22-9.12.08-.15.15-.26.23-.4,3.83-8.16.82-24.9-1.22-33.7-.25-1.06-.5-2.14-.76-3.23h0c2.54,11.06,6.43,21.78,12.5,28.83.78,1.61.88,3.51,2,4.94,2.53,3,6.59,2.61,10,1.53l5.19-1.29,10.4-2.58c1.91-.54,5.28-.64,5.29-3.29.12-1.26.16-2.71.18-4,4.88-1.52,3.56-14.38,3.93-18.69A380.86,380.86,0,0,0,348,599.33c-1.19-16.73-1.35-33.5-2.48-50.23,12-.3,19.62-20.11,23.09-29.86l1.78-5.41s5.72-31.47,5.73-31.51c1.92-10.49,4.38-20.84,7.17-31.13a301.73,301.73,0,0,0,5.93-31.5c1.53-10.56,2.75-21.21,3.76-31.8,2.07-16.77,5.72-50,27.66-50.29,18.81,0,17.31,23.63,16.38,37.14-.48,7.93-1.51,24-2,31.94-1.87,26.35-5.87,53.18-8.75,79.44-1.37,10.54-3.45,21-5.63,31.43-6.77,31.11-12.65,63.41-7.38,95.26a148.88,148.88,0,0,0,8.36,30.37,103.3,103.3,0,0,1-24,9.77c-12.86,4.13-25.1,9.81-37.85,14.2-18.53,7.18-32.3,25.86-41.71,42.73,9.56-16.66,23.48-35.14,41.95-42.06C372.85,663.6,385.2,658.06,398,654c13-3.59,25.88-9,36-18.17,10.1-9,17.87-20.29,27.46-29.77,16.43-16.33,32.11-35.6,54.88-42.82,12.73-4,26.4-4.3,39.56-2.45,8.84,1.44,21,2.56,25.9,11.05v6c-2.22,1-4.38,2-6.53,3.05-5.74,3.11-16.23,8.21-18,15l-12.18,14.24c-6.89,8.31-17.73,20.31-25,28.42-6.28,7.05-13.53,13.51-18.64,21.62-11.11,18.55-22.77,38.57-36.34,55.39-19.27,25.1-43.73,45.53-63.74,70-9.65,11.83-19.53,24.34-32.46,32.56h0a60.74,60.74,0,0,1-9.36,4.91,60.83,60.83,0,0,0,9.18-4.66l-.13.24a2.39,2.39,0,0,0-.13.28,17.64,17.64,0,0,0-.87,4.05c-1.21,11.86-.8,23.83-.68,35.73.27,13.62.78,27.22,1.42,40.83l.25,5.1c.1,1.68.08,3.4.12,5.1.75,23.83,6.29,51.67,12.34,74.68-3.85-1.48-175.49-1-189-1.16l.07-100.31c0-8.41-.53-16.81-.55-25.24-.2-12.65-.42-25.39-2.21-38-.63-4.19-1.43-8.37-2.38-12.48-13.66-57.16-22.05-116.17-19.47-175a280.16,280.16,0,0,1,7.23-50c-.78-36-2.92-72.14-7.44-107.92-1.25-10.77-3.67-32.18-4.93-43-.83-7.13-1.94-14.34-.82-21.48,0-14,7.53-22,21.59-18.32a7.69,7.69,0,0,1,2.94,2.84c2.44,3.66,3.73,7.88,5,12.09s3.06,8.37,4.36,12.58c3.74,12.76,6.08,25.9,9.18,38.84,2.19,8.61,4.22,17.23,5.64,26,4.49,26.18,6.2,53.13,15.29,78.29l.66-.09c.11.84.23,1.68.37,2.51,1.91,4.53,3.86,9.26,7.2,12.92Z"/><path class="cls-2" d="M381.36,980.6l.67,3.9h-1c.06,0,.05-.07,0-.1-6.05-23-11.59-50.85-12.34-74.68,0-1.7,0-3.42-.12-5.1l-.25-5.1c-.64-13.61-1.15-27.21-1.42-40.83-.12-11.9-.53-23.87.68-35.73a17.64,17.64,0,0,1,.87-4.05,9.55,9.55,0,0,0-.43,1.54,53.81,53.81,0,0,0-.81,7.61c-.49,10.2-.26,20.42,0,30.63.42,15.29,1.12,30.61,2,45.9a238.51,238.51,0,0,0,3.31,35.5,394.15,394.15,0,0,0,8.71,39.83Z"/><path class="cls-2" d="M192,983.24v.87l-.89-.88S191.38,983.24,192,983.24Z"/><path class="cls-2" d="M192.07,882.93,192,983.24c-.62,0-.91,0-.89,0l.89.88v-.87c13.52.13,185.16-.32,189,1.16a.44.44,0,0,0,0,.1L191.15,985l-.88,0v-.89c-.12-20.34.26-108.2-.65-126.39-.21-12.62-.44-25.21-2.24-37.7-.62-4.13-1.42-8.24-2.37-12.33a694.29,694.29,0,0,1-19.09-124.93c-2-33.67-1.12-67.87,7-100.77-.75-31.1-2.38-65-6-96.8-1.79-15.49-4.23-38.19-6-53.73-.81-6.95-1.76-14-.87-21,0-.21.08-.43.13-.64v.1l0-.23,0,.13a31,31,0,0,1,.67-6.68,24,24,0,0,1,1.11-3.75c.12.28.24.54.38.8-.06-.4-.14-.81-.21-1.21,3.45-8.25,11.18-11,20.68-8.65l.34.67c0-.21-.07-.42-.11-.62l.23.06c1.6.53,2.69,2,3.62,3.3,2.52,3.82,3.84,8.19,5.1,12.42s3,8.31,4.32,12.6c3.66,12.83,5.9,26,8.93,39,2.12,8.61,4.1,17.3,5.45,26.08,4.32,26.22,5.84,53.15,14.76,78.38-9.09-25.16-10.8-52.11-15.29-78.29-1.42-8.77-3.45-17.39-5.64-26-3.1-12.94-5.44-26.08-9.18-38.84-1.3-4.21-3-8.31-4.36-12.58s-2.57-8.43-5-12.09a7.69,7.69,0,0,0-2.94-2.84c-14.06-3.67-21.62,4.36-21.59,18.32-1.12,7.14,0,14.35.82,21.48,1.26,10.79,3.68,32.2,4.93,43,4.52,35.78,6.66,71.89,7.44,107.92a280.16,280.16,0,0,0-7.23,50c-2.58,58.85,5.81,117.86,19.47,175,.95,4.11,1.75,8.29,2.38,12.48,1.79,12.57,2,25.31,2.21,38C191.54,866.12,192.09,874.52,192.07,882.93Z"/><path class="cls-2" d="M230.25,559.94c1.11,5.27,2.41,11.24,3.77,17.48l-.28.06c-3.25-3.72-5.09-8.48-6.89-13A78.83,78.83,0,0,1,230.67,526a33.1,33.1,0,0,1,6.68-14.22c5.6-6.76,14.85-9.86,23.42-9.13,16.56.37,21.72,19.52,23.33,33.18,2.23,15,3.5,30.16,4.71,45.32a223,223,0,0,0,2.67,22.74c1.85,10.9,4.76,22.68,7.34,33.48,2.1,9.09,3.72,18.57,2.76,27.9a11.81,11.81,0,0,1-1.78,5.3,5,5,0,0,1-1.95,5.36c-3.54,2.33-8.18,3.05-12.32,4.06l-3.27.73c-3.7.78-7.58.06-11.33,0a.69.69,0,0,1-.13,0l-.12-.12c-1-1.46-.52-4-2.06-5.47-16-12.79-22.1-39.14-25-58.67C243.66,616.34,231,563.29,230.25,559.94Z"/><path class="cls-2" d="M237.35,511.77A33.1,33.1,0,0,0,230.67,526a78.83,78.83,0,0,0-3.82,38.45c1.8,4.56,3.64,9.32,6.89,13-3.34-3.66-5.29-8.39-7.2-12.92-.14-.83-.26-1.67-.37-2.51a79.27,79.27,0,0,1,3.6-36.42c1.32-6.61,4.87-14.05,10.6-18.4,7.95-6.5,23-8.63,31.5-2.55,9.71,7,12.39,19.69,14,30.87,2.29,15.08,3.6,30.28,4.87,45.43a220.93,220.93,0,0,0,2.71,22.55c1.73,9.72,4.21,20.3,6.53,30.15.26,1.09.51,2.17.76,3.23,2,8.8,5.05,25.54,1.22,33.7-.08.14-.15.25-.23.4,0-.14,0-.27-.06-.41l-.26.81a3.68,3.68,0,0,0,.32-.4c.78,5.52-4.76,8-9.22,9.12-3.15.91-6.66,1.55-9.86,2.3s-7,.2-10.2.05c-.89,0-2.32.08-3-.79-1.39-1.64-.76-4-2-5.43a41.62,41.62,0,0,1-8.07-8.69c-10.12-15-14.35-33.54-16.72-51-2.45-11.35-5.7-25.84-8.63-39.15-1.36-6.24-2.66-12.21-3.77-17.48.79,3.35,13.41,56.4,13.4,56.46,2.87,19.53,9,45.88,25,58.67,1.54,1.48,1.06,4,2.06,5.47l.12.12a.69.69,0,0,0,.13,0c3.75.08,7.63.8,11.33,0l3.27-.73c4.14-1,8.78-1.73,12.32-4.06a5,5,0,0,0,1.95-5.36,11.81,11.81,0,0,0,1.78-5.3c1-9.33-.66-18.81-2.76-27.9-2.58-10.8-5.49-22.58-7.34-33.48a223,223,0,0,1-2.67-22.74c-1.21-15.16-2.48-30.31-4.71-45.32-1.61-13.66-6.77-32.81-23.33-33.18C252.2,501.91,243,505,237.35,511.77Z"/><path class="cls-2" d="M413.28,612.81c-5.27-31.85.61-64.15,7.38-95.26,2.18-10.44,4.26-20.89,5.63-31.43,2.88-26.26,6.88-53.09,8.75-79.44.47-7.93,1.5-24,2-31.94.93-13.51,2.43-37.15-16.38-37.14-21.94.29-25.59,33.52-27.66,50.29-1,10.59-2.23,21.24-3.76,31.8a301.73,301.73,0,0,1-5.93,31.5c-2.79,10.29-5.25,20.64-7.17,31.13,0,0-5.71,31.47-5.73,31.51l-1.78,5.41c-3.47,9.75-11.09,29.56-23.09,29.86v0c12-.43,19.26-20.33,22.57-30l1.68-5.43c0,.22,5.32-31.56,5.31-31.52,1.84-10.5,4.23-20.95,6.94-31.25a297.08,297.08,0,0,0,5.66-31.4c.69-5.28,1.33-10.57,2-15.86,1.77-15.89,2.45-32.21,8-47.4a42.09,42.09,0,0,1,7.1-12.87l.12,1.27c.05-.53.11-1.06.15-1.6a21.65,21.65,0,0,1,7.55-5.64,21.27,21.27,0,0,1,8.24-1.69,19.33,19.33,0,0,1,8,1.72,16.83,16.83,0,0,1,7.24,7.37c0,.3-.08.59-.13.88a5.84,5.84,0,0,0,.24-.66c4.39,8.63,3.37,21.12,2.88,29.89-.53,8-1.54,24-2.08,31.94-1.92,26.4-6,53.21-9,79.53-4.09,29.06-13.18,57.23-15.24,86.58-2.09,23.69.38,48,8.9,70.25A148.88,148.88,0,0,1,413.28,612.81Z"/><path class="cls-2" d="M335.66,503.81c-4.76-9-14.44-16.62-25-15-9.61,1.31-17.49,9.06-20.23,18.29-1.92,6.19-2.17,12.86-2,19.44a736.77,736.77,0,0,0,7.81,79.23c1.33,17.24,4.92,43.3,16.25,56.69-6.07-7-10-17.77-12.5-28.83a207.39,207.39,0,0,1-4.11-27.82,737.8,737.8,0,0,1-8.93-79.22c-.27-6.63-.19-13.48,1.8-20,2.86-9.84,11.32-18.22,21.63-19.65,14.41-2.17,26.11,10,29.94,23,3.07,9.59,3.62,19.78,4.48,29.69.29,3.15.53,6.3.74,9.45a.25.25,0,0,1-.12,0h.12c1.13,16.73,1.29,33.5,2.48,50.23a380.86,380.86,0,0,1,1.46,39.83c-.37,4.31,1,17.17-3.93,18.69v-.07c0-.07-.12-.13-.14-.13a2.82,2.82,0,0,0,1.84-1.4c2.56-5.26,1.59-11.42,1.83-17.1.34-19.94-2.42-39.75-3.37-59.64C345,566.24,344.3,553,343,539.79,341.87,527.55,341.33,514.9,335.66,503.81Z"/><path class="cls-2" d="M585.15,577.17a3.36,3.36,0,0,1,2.26,4.05l-.25.16a196.65,196.65,0,0,1-27.91,14.54c0-.14.09-.28.14-.41a196.53,196.53,0,0,1,27-15.1,1.31,1.31,0,0,1-.06.25l.29-.36-.23.11a1.84,1.84,0,0,0,0-.53,2.55,2.55,0,0,0-1.27-2.07l.16,0H585l.08.06-1.3.38v-.29C584.25,577.65,584.71,577.4,585.15,577.17Z"/><path class="cls-2" d="M586.57,580.3l-.29.36a1.31,1.31,0,0,0,.06-.25Z"/><path class="cls-2" d="M585.28,577.76l-.16,0-.08-.06Z"/><path class="cls-2" d="M581.93,572l-.11-.43v.27c-4.93-8.49-17.06-9.61-25.9-11.05-13.16-1.85-26.83-1.6-39.56,2.45-22.77,7.22-38.45,26.49-54.88,42.82-9.59,9.48-17.36,20.73-27.46,29.77C423.9,645,411,650.42,398,654c-12.82,4-25.17,9.59-37.95,13.81-18.47,6.92-32.39,25.4-41.95,42.06,9.41-16.87,23.18-35.55,41.71-42.73,12.75-4.39,25-10.07,37.85-14.2a103.3,103.3,0,0,0,24-9.77,65.32,65.32,0,0,0,11.46-8.37c10-9.07,17.67-20.36,27.22-29.9,4.71-4.8,9.34-9.71,14.1-14.52,21.34-21.86,40.06-34.06,71.64-32.47a134.73,134.73,0,0,1,20.17,2.67c6.61,1.51,14.11,4.08,17.48,10.54l.11.2v6.57l-1,.58,1-.29v.95l-.62.27a108.84,108.84,0,0,0-13.8,7c-3.2,2-6.45,4.14-8.81,7.1a8,8,0,0,0-1.2,2l-1.25.86,1.11-.45a5.21,5.21,0,0,0-.19.89l-.17.2-18.55,21.58c-4,4.81-14.61,16.38-19,21.22-6.3,7.06-13.42,13.32-18.49,21.33-11.13,18.55-23,38.59-36.69,55.34-19.49,25-44,45.33-64.37,69.53-9.85,11.79-20,24.29-33.13,32.37a2,2,0,0,1,.16-.24h0c12.93-8.22,22.81-20.73,32.46-32.56,20-24.47,44.47-44.9,63.74-70,13.57-16.82,25.23-36.84,36.34-55.39,5.11-8.11,12.36-14.57,18.64-21.62,7.3-8.11,18.14-20.11,25-28.42l12.18-14.24a2.14,2.14,0,0,0-.09.34l.22-.5-.13.16c1.79-6.83,12.28-11.93,18-15,2.15-1.09,4.31-2.1,6.53-3.05v.67l.63-.94-.63.27v-6A.76.76,0,0,0,581.93,572Z"/><path class="cls-2" d="M583.82,577.9v.29l-1,.29Z"/><path class="cls-2" d="M582.44,577.54l-.63.94v-.67Z"/><path class="cls-2" d="M581.82,571.58l.11.43a.76.76,0,0,1-.11-.16Z"/><path class="cls-2" d="M558.14,596.37l1.25-.86c0,.13-.1.27-.14.41Z"/><path class="cls-2" d="M557.39,595.74l-.22.5a2.14,2.14,0,0,1,.09-.34Z"/><path class="cls-2" d="M436.43,337.45a14.09,14.09,0,0,1-.29,7.54,2.26,2.26,0,0,0-.11-.22,16,16,0,0,0-.62-6.52l.18.09-.26-.34c0,.08.05.17.08.25a34.57,34.57,0,0,0-14.63-3.15h-.2a78.57,78.57,0,0,0-15.15,1.3l0-.54-.47.62.44-.08c-.12,2.21-.26,4.41-.46,6.62l-.27.33c-.24-2.66-.41-5.31-.54-8,7.92-2.32,16.43-3.15,24.54-1.28A25.55,25.55,0,0,1,436.43,337.45Z"/><path class="cls-2" d="M436,344.77a2.26,2.26,0,0,1,.11.22,5.84,5.84,0,0,1-.24.66C436,345.36,436,345.07,436,344.77Z"/><path class="cls-2" d="M435.33,338l.26.34-.18-.09C435.38,338.17,435.36,338.08,435.33,338Z"/><path class="cls-2" d="M405.46,335.85l0,.54-.44.08Z"/><path class="cls-2" d="M404.7,343.34,405,343c0,.54-.1,1.07-.15,1.6Z"/><path class="cls-2" d="M368.87,818.14a2,2,0,0,0-.16.24s0,0,0,0A1.6,1.6,0,0,1,368.87,818.14Z"/><path class="cls-2" d="M368.87,818.14a1.6,1.6,0,0,0-.18.25,60.83,60.83,0,0,1-9.18,4.66A60.74,60.74,0,0,0,368.87,818.14Z"/><path class="cls-2" d="M368.69,818.39s0,0,0,0l-.15.25Z"/><path class="cls-2" d="M345.69,579.51c.95,19.89,3.71,39.7,3.37,59.64-.24,5.68.73,11.84-1.83,17.1a2.82,2.82,0,0,1-1.84,1.4l0,.24c-.34,1.51,0,3.6-.57,5.13a4.62,4.62,0,0,1-2.24,1.28c-1.84.39-10.95,2.82-13,3.26l-5.19,1.33c-3.34,1.11-7.41,1.51-9.91-1.47-1.16-1.41-1.28-3.32-2.07-4.92-11.33-13.39-14.92-39.45-16.25-56.69a736.77,736.77,0,0,1-7.81-79.23c-.19-6.58.06-13.25,2-19.44,2.74-9.23,10.62-17,20.23-18.29,10.6-1.66,20.28,6,25,15,5.67,11.09,6.21,23.74,7.37,36C344.3,553,345,566.24,345.69,579.51Z"/><path class="cls-2" d="M345.53,657.78v.07l-.1,0,0-.24S345.52,657.71,345.53,657.78Z"/><path class="cls-2" d="M345.43,657.89l.1,0c0,1.25-.06,2.7-.18,4,0,2.65-3.38,2.75-5.29,3.29l-10.4,2.58L324.47,669c-3.37,1.08-7.43,1.51-10-1.53-1.16-1.43-1.26-3.33-2-4.94.79,1.6.91,3.51,2.07,4.92,2.5,3,6.57,2.58,9.91,1.47l5.19-1.33c2-.44,11.14-2.87,13-3.26a4.62,4.62,0,0,0,2.24-1.28C345.41,661.49,345.09,659.4,345.43,657.89Z"/><path class="cls-2" d="M345.52,549.08v0h-.12A.25.25,0,0,0,345.52,549.08Z"/><path class="cls-2" d="M301.64,670.6c0,.14.05.27.06.41a3.68,3.68,0,0,1-.32.4Z"/><path class="cls-2" d="M183.1,390.34c0,.2.08.41.11.62l-.34-.67Z"/><path class="cls-2" d="M183.1,390.34l-.23,0c-.4-.81-.78-1.63-1.15-2.46l.19,0-.31-.3.12.28c-5.53-.65-10.88,1.75-15.87,3.94-1.57.72-3.15,1.48-4.67,2.29,0-.2-.09-.38-.14-.57l-.28.79.42-.22c.37,1.61.73,3.23,1,4.88-.06.13-.12.27-.17.41-.9-1.93-1.69-3.92-2.47-5.9,4.94-3.53,10.55-6.35,16.64-7.08a13.46,13.46,0,0,1,6.22.71C182.65,388.15,182.89,389.24,183.1,390.34Z"/><path class="cls-2" d="M181.91,387.85l-.19,0-.12-.28Z"/><path class="cls-2" d="M162.19,398.94c.07.4.15.81.21,1.21-.14-.26-.26-.52-.38-.8C162.07,399.21,162.13,399.07,162.19,398.94Z"/><path class="cls-2" d="M161.18,394.06l-.42.22.28-.79C161.09,393.68,161.14,393.86,161.18,394.06Z"/><path class="cls-2" d="M160.27,409.65l0,.23v-.1Z"/></g><path class="cls-3" d="M370.08,500.57c1.4-20.06-2.18-40.26-9-59.21a152.13,152.13,0,0,0-12.38-26.5c-5.23-8.77-11.71-16.72-16.74-25.63-4.84-8.56-8.63-17.67-12.35-26.76a236.33,236.33,0,0,1-12.73-40.93,158,158,0,0,1-3.59-39.2c.68-15.73,6.59-30,10.23-45.15a275.14,275.14,0,0,0,5.77-32.86,317.34,317.34,0,0,0,1-59.52,339.67,339.67,0,0,0-7.26-49.25c-1.35-6-2.34-13-5-18.69a39.67,39.67,0,0,1,2.68,8.44c3.2,15.13,1.37,31.45-.74,46.6a440.78,440.78,0,0,1-9,45.24c-4.21,16.9-10.89,32.93-15.94,49.6-7.26,24-13,48.65-19,72.77-5.2,21.21-3.39,43.5,2.74,64.32a171.74,171.74,0,0,0,9.49,24.8c3.75,7.93,9.1,14.81,12,23.16,2.77,7.86,4.11,16.39,5.17,24.45a134.21,134.21,0,0,1,1.27,21.39c-.27,9.23-1.7,18.93-6.36,27.05-4.22,7.35-14.31,16-23.73,14.16-9.26-1.79-17.47-6.72-21.93-15.22-6.34-12.09-4.78-27.24-2.15-40.11a169.21,169.21,0,0,1,7-24c3.28-9,8.18-16.82,8.86-26.6.62-8.83-1.37-17.87-4-26a74.25,74.25,0,0,0-14.8-26.47,69.57,69.57,0,0,0-11.64-10.58c-1.38-1-3.95-1.92-5-3.19,9.19,10.65,17.16,23.66,18.2,38,.65,9.05-1.26,21.52-10.52,25.63-19,8.44-30.54-20.46-29.12-34.8,1.57-16,5.62-31.66,10.48-46.94,4.66-14.62,11.44-29,14.55-44.05,4-19.49,1.44-39.79-5.41-58.34A127.45,127.45,0,0,0,213,188.25c-1.17-2.09-3.07-4.25-3.94-6.47,5.62,14.25,4.55,30.59,2.12,45.4-5,30.44-17,59.25-30.23,86.91-6.42,13.4-11.88,27.37-15.07,41.91-2.84,13-5.25,28.2-.6,41,0,0,16-6.07,17-2.81s8.51-13.43,29.24,101.42,12.73,67.74,12.73,67.74,1.09-52.48,25.54-56.18c0,0,26.59-7.65,33.52,26.82,0,0,3.72-36.23,19.32-38.38,0,0,34.39-11.57,38,29.14l3.68,29.08S365.94,559.66,370.08,500.57Z"/><g class="cls-4"><path class="cls-2" d="M282.31.36c-12,11.59-25,21.47-32.54,37a72.45,72.45,0,0,0-5.52,48.83,108.55,108.55,0,0,0,3.25,10.77c5.84,16.39,14.6,31.65,19.83,48.24s6.55,35.57-2.16,50.63c12.78-12,18-29.83,23.27-46.57,4.06-12.84,8.56-26.17,6.53-39.48-1.61-10.57-7.19-20-11.54-29.81a125.73,125.73,0,0,1-10.78-43C271.85,24.39,272.67,9.65,282.31.36Z"/><path class="cls-2" d="M282.31.36c-9.53,9.43-20.12,18-27.6,29.24a72.31,72.31,0,0,0-10.85,51c5.67,30.82,28.53,57,28.56,89.32.07,9.06-1.76,18.36-6.39,26.34l-1.55-1.23c12.72-12,17.74-29.43,22.95-45.66,2.64-8.29,5.4-16.54,6.61-25.06a48.7,48.7,0,0,0-2.77-25.23c-3-8.08-7.35-15.7-10.49-23.87a128.13,128.13,0,0,1-7-25.2c-2.35-16.18-4.17-37.3,8.57-49.69Zm0,0c-16.68,16.36-8.28,55-.37,74.43,7,16.95,17,30.21,13.81,49.8-1.22,8.74-4,17.08-6.59,25.36-5.22,16.5-10.31,34.23-23.31,46.57l-5,4.67,3.42-5.89c8.93-15.59,7.06-34.91,1.63-51.44-8.13-25.19-25.45-48.91-24.28-76.53a72.83,72.83,0,0,1,12.42-38.16C261.79,18,272.53,9.55,282.31.36Z"/></g><g class="cls-4"><path class="cls-2" d="M397.26,338.79c10.67-20.22,3-43.44-8.19-61.33-10.74-17.12-25.81-31.62-33.61-50.52a69.79,69.79,0,0,1,5.93-64.3c-2.67,4.06-8.56,7.53-11.88,11.24A115.67,115.67,0,0,0,328.37,208c-10.31,25.74-13.07,59.15.78,84,6.25,11.21,15.26,20.31,22.29,30.95,4.72,7.15,6.74,14.74,9.13,22.86a225.82,225.82,0,0,1,5.89,24.61c2.7,15.3,4.7,33.76-3,48,0,0,6.18-6.61,13.58-20.86C377,397.54,397.11,339.07,397.26,338.79Z"/><path class="cls-2" d="M397.26,338.79c9.8-18.3,3.95-40.34-5.95-57.33-8-14-19.21-25.73-28-39.19-16.63-23.62-18.55-55.55-2.56-80.06l1.3.86c-3.44,5-8.9,7.69-12.64,12.23A113.18,113.18,0,0,0,339,189.23c-17.82,28.26-25.3,68.65-10.47,99.62,6.4,13,17.38,23.39,24.91,35.91,3,5.13,4.81,10.79,6.46,16.44,6.33,22.38,15.32,55.83,3.76,77.31l-.35-.26c5.46-6.24,9.74-13.45,13.62-20.76l20.34-58.7Zm0,0s-20.1,58.8-20.11,58.81c-4.17,7.9-8.75,15.7-14.77,22.35l.88-1.65c5.51-10.4,5.86-22.6,4.73-34.07-1.5-14.52-5-28.75-9.33-42.67a72.58,72.58,0,0,0-6.5-16.06c-4.56-7.45-10.4-14-15.67-21-27-32.94-20.61-82.15,1-116.23a115.65,115.65,0,0,1,10.63-14.1c3.69-4.52,9.3-7.26,12.62-12l1.3.86c-13.32,19.9-14.85,47-4.08,68.39,8.8,18.14,23.64,32.42,33.57,49.88,9.84,17,15.62,39.17,5.73,57.45Z"/></g><g class="cls-5"><path class="cls-2" d="M186.92,979.45A102.93,102.93,0,0,1,151.83,907c-1.57-31.26,14.31-59.14,23.22-88.29C179.53,804,180.53,808,177.53,797c0,0,1-1-7-39,0,0-6.71-37.66-9.73-45.9a86,86,0,0,1,5.12,31.8,99.34,99.34,0,0,1-6.86,33.58c-8.89,22.77-24.65,41.83-35.94,63.34-6.65,12.68-12,26.51-13.41,40.85-2.38,23.69,11.34,45.87,24.8,64.3C146,961.76,163,981.76,185.08,979.45"/></g><g class="cls-1"><path class="cls-2" d="M42.38,515.1c1.31.28,3.28,3.36,4,4.47,4,6.22,5,14.21,5.3,21.42.76,20.43-3.69,40.81-10,60.14-7.37,22.74-23.13,41.65-30.57,64.48-7,21.65-8.88,45.55-2.05,67.5a86.35,86.35,0,0,0,11.12,23s43.52,63.61,55,60.39c-1.67.47-8.45-10.7-9.42-12.1-13.6-19.61-25.72-43.09-24.1-67.66,1.15-17.23,10.54-34.24,16.22-50.36,6.38-18.08,12.21-36.37,17.21-54.89,5.09-18.86,8-37.82,2.58-57.15-4.77-17-9-34.61-20.26-48.7C53.59,520.83,48.61,516.4,42.38,515.1Z"/><path class="cls-2" d="M42.38,515.1c1.65.67,2.57,2.41,3.59,3.78,6.88,10.47,6.16,24,5.7,36a187.82,187.82,0,0,1-8,41.54C36.29,624,16,646,9.65,673.55c-7,26.91-5.26,57.21,10.46,80.78,8,11.57,16.33,22.95,25.11,33.93,6.63,8.14,13.34,16.35,21.33,23.16,2.31,1.84,5.52,4.51,8.4,4.16l.53,1.92a2.24,2.24,0,0,1-.52,0,3,3,0,0,1-1.52-.81,45.94,45.94,0,0,1-5.61-7.35c-1.39-2.18-4.2-6.46-5.67-8.58-13.16-19.93-24.08-43.55-20.94-68,1.4-10.3,5.25-20.1,9.14-29.63,5.42-12.63,9.88-25.53,14.14-38.57,7.81-25.89,18.34-52.51,14.84-80-.7-6.12-3.14-14-4.72-20-4.35-16.27-14.05-45.21-32.24-49.56Zm0,0c18.32,4.15,28.41,33.19,32.94,49.37,1.7,6,4.18,13.91,5,20a89.64,89.64,0,0,1,.45,20.64,141.19,141.19,0,0,1-3.43,20.36c-5,20-11.17,39.66-17.89,59.14C53.65,702,44,718.33,42.6,736.82,41.13,761.39,53,784.3,66.66,804c1.46,2.19,4.08,6.37,5.72,8.49a14.25,14.25,0,0,0,2.82,3.1.43.43,0,0,0-.25,0l.53,1.92c-8.36,2-26.38-21.68-31.76-28q-13.2-16.62-25.13-34.13a90,90,0,0,1-14-40c-2.2-21.2,1.92-42.89,10.74-62.22,6.31-13.63,14.61-26.19,21-39.77a128.34,128.34,0,0,0,6.49-17.24c5.22-16.78,8.85-34.22,8.8-51.85-.07-8.69-.7-17.94-5.65-25.38-1-1.41-1.9-3.11-3.54-3.82Z"/></g><path class="cls-6" d="M162.53,680c.36,6.94-3.6-1.86-8.51-6.77-26.12-26.08-43.56-60.54-41-98.08.91-13.26,4.34-25.27,9.41-37.44,14.29-34.35,21.75-79.12,8.61-115-1-2.81-3.23-10.82-6.2-12.46,20.75,11.41,33.29,31.78,37.83,54.64a130.14,130.14,0,0,1,1.51,38.7c-1,9.51-4,18.66-5.39,28.14-1.95,13.27-2.1,27,1.55,40,1.19,4.24,5,15.64,11.19,16.25C171.53,588,159.53,622,162.53,680Z"/><path class="cls-7" d="M446.4,742.17a.84.84,0,0,1,1.18-.07c10.82,9.53,4.27,28.3,2.68,41.08-1.32,10.59-1.27,21.4-3.62,31.86a88.53,88.53,0,0,1-11.74,28c-10.75,16.93-25.78,31-42.17,42.44-1.28.9-5,2.41-5.79,3.8,31.85-56.4,17-101.41,17-101.41Z"/><path class="cls-8" d="M563.23,645.2c1.66-4.86,4.65-17.54,9.35-20.71a92.59,92.59,0,0,0-7.63,5.73c-37,31-41.86,84.76-36.81,129.87,1.82,16.26,6.73,31.89,5.34,48.34-1.52,17.92-8,44.58-29.54,46.74-34.52,3.48,4.13-70.9,7.32-84.09,3-12.46,3.63-25.49,3.45-38.27a282.94,282.94,0,0,0-4.63-48c-1.9,18.56-3.38,39.49-11.06,56.74-10.17,22.84-23.34,44.51-29.24,69.06-2.46,10.21-2.54,19.88-3.31,30.17-2,26.84-.84,54.61-5.3,81.14-4.38,26.07-9.53,51.78-54.31,63.06h68.25c-2.26-12.52,1.71-26.94,5.29-38.38a122.07,122.07,0,0,1,31-51c20.79-20.16,45.05-34,51.51-64.67,5.08-24.18-2.94-47.77-6.35-71.58a320.57,320.57,0,0,1-3.39-49.52C553.46,688,556.2,665.89,563.23,645.2Z"/><path class="cls-9" d="M182.91,980.89c-26.53-21.94-40.36-58-35-92.12,3.91-25.51,16-48.62,24-72.89a186.22,186.22,0,0,0,6.61-24.65c-3.51,25.47-14.77,48.94-22.67,73.17-5.17,16.08-8.55,33-6.63,49.91a105.48,105.48,0,0,0,33.69,66.58Z"/><path class="cls-9" d="M168.1,732.86c-4.45-6-8.75-12.24-11.57-19.22l.52-.19c9.62,25.06,5.82,53.66-6.33,77.19-16.09,31.81-43.22,60.38-44.35,97.71-.06,16.51,7.23,32,15.85,45.72,7.11,11,14.72,21.95,24,31.29,9.12,9.23,21.41,16.85,34.86,15.53-13.53,1.74-26.11-5.78-35.5-14.87-9.53-9.26-17.25-20.14-24.59-31.16-9-13.85-16.44-29.67-16.44-46.52.78-37.72,28.3-66.62,44.66-98.47,12.23-23.18,16.29-51.21,7.33-76.23l.52-.19c2.66,7,6.81,13.3,11,19.41Z"/><path class="cls-9" d="M38.37,515.55c1.65.67,2.57,2.41,3.59,3.78,6.89,10.47,6.16,24,5.7,36a188.38,188.38,0,0,1-7.95,41.54C32.28,624.49,12,646.4,5.64,674c-7,26.91-5.26,57.21,10.46,80.78,8,11.57,16.33,22.94,25.11,33.93,6.63,8.14,13.34,16.35,21.33,23.16,2.31,1.84,5.52,4.51,8.4,4.16l.54,1.91a1.91,1.91,0,0,1-.53,0,3,3,0,0,1-1.52-.81,45.94,45.94,0,0,1-5.61-7.35c-1.39-2.18-4.2-6.46-5.67-8.59-13.16-19.92-24.07-43.54-20.94-68,1.41-10.3,5.26-20.1,9.15-29.63,5.41-12.63,9.87-25.53,14.13-38.57,7.81-25.89,18.34-52.51,14.84-80-.69-6.12-3.14-14-4.72-19.95-4.35-16.27-14-45.22-32.24-49.56Zm0,0c18.32,4.14,28.41,33.19,32.94,49.37,1.71,6,4.19,13.91,5,20a89.08,89.08,0,0,1,.45,20.64,141.65,141.65,0,0,1-3.43,20.36c-5,20-11.17,39.66-17.88,59.14C49.64,702.41,40,718.78,38.6,737.27,37.12,761.84,49,784.75,62.66,804.42c1.45,2.19,4.07,6.37,5.72,8.49a14.18,14.18,0,0,0,2.81,3.1.36.36,0,0,0-.25,0l.54,1.91c-8.37,2-26.39-21.67-31.77-28q-13.2-16.62-25.13-34.13a90,90,0,0,1-14-39.95c-2.2-21.2,1.92-42.89,10.74-62.22,6.32-13.63,14.61-26.19,21-39.78a127.33,127.33,0,0,0,6.49-17.24c5.23-16.77,8.85-34.21,8.8-51.84-.07-8.69-.7-17.94-5.65-25.38-1-1.41-1.9-3.11-3.54-3.82Z"/><path class="cls-9" d="M166.59,593.63c-6.4-1.12-10.56-15.46-12.36-21.07-4.7-16.29-3.76-33.76-.11-50.17,1.88-8.21,3.61-16.38,3.92-24.81,1.78-28.79-6-60.37-29.33-79.08a75.55,75.55,0,0,0-10.33-6.95l.89-1.62c3,2.13,3.83,5.39,5.12,8.49.78,2.26,2.29,6.68,3,9,10.52,34.08,4.58,71.49-7.49,104.38-3.14,7.94-6.61,16-8.74,24.25-7.52,27.19-2.91,56.83,10.38,81.51,10.15,19.48,25,36.17,41.94,50.09-17.13-13.68-32.38-30.21-42.83-49.61C107,613.18,102,583.12,109.51,555.57c2.13-8.36,5.58-16.43,8.72-24.44,11.84-32.42,17.56-69.63,7.35-103.18-.69-2.17-2.2-6.73-3-8.89-1-2.59-2.08-5.93-4.24-7.51l.89-1.62A73.07,73.07,0,0,1,139,426c16.92,19.53,22,46.47,20.34,71.65-.37,8.45-2.2,16.79-4.16,25-3.74,16.27-5,33.55-.58,49.82,1.74,5.73,5.61,19.92,12,21.18Z"/><path class="cls-10" d="M163.61,391.33c-8.13-23.11,4.5-59.75,14.63-81.21,12.06-25.27,23.16-51.29,29-78.77,3.63-18,6.45-37.45-.31-55.07l1-.39c1.24,2.85,3.55,5.32,4.89,8.18,10.56,19.81,16.4,42.55,14.28,65.06-1.68,19.34-10.68,36.92-16.35,55.22a245.61,245.61,0,0,0-9,37.19c-1,6.28-1.77,12.55-.22,18.8,2.37,10.35,8.67,24.51,20.84,25a15.37,15.37,0,0,0,10.29-4.15,19,19,0,0,0,4.6-7.84c3.7-12.13.59-25.42-5.53-36.28a94.58,94.58,0,0,0-11-15.49l1.32-1.14c18.16,10.5,29.56,28.8,34.06,49,3.77,16.21,1.5,25.23-5.31,39.93-7.83,19.73-18.27,53.95-4,72.29,4.9,6.09,12.44,9.77,20.13,10.72,7,.25,13.28-4.23,17.78-9.31,12.57-14.91,10.1-39.87,7.47-58a98.84,98.84,0,0,0-4.66-19.56c-2.34-6.23-6.14-11.86-9.44-17.85-12.87-24.94-20-53.53-16.73-81.64,1.27-10.69,5.94-26.7,8.36-37.33,4.94-19.75,9.93-39.55,16.45-58.87,3.76-11,9.72-27.41,12.43-38.67q2.46-9.85,4.55-19.8a380.64,380.64,0,0,0,6.22-40.11c.92-10.07,1.13-20.25-.77-30.19a39.74,39.74,0,0,0-2.85-9.53l1.49-.69a62.81,62.81,0,0,1,3.84,13.39,387.66,387.66,0,0,1,7,40.75c4.12,36.53,2.71,73.91-6.37,109.62-2.33,8.91-5.29,17.61-7.3,26.54-8.41,38.62,7.35,84.36,24.36,119,4.19,8.17,9.73,15.53,14.8,23.16,17.77,26.86,26.11,59.55,24.82,91.63a157.61,157.61,0,0,0-18.12-79.59c-4.24-8.16-9.72-15.54-14.88-23.13a143.45,143.45,0,0,1-13.11-24.23c-12.91-29.28-22.86-61-21.05-93.37.95-13.84,5.91-27,9.33-40.27,8.94-35.56,10.25-72.8,6.05-109.15a385.22,385.22,0,0,0-7.13-40.6,60.23,60.23,0,0,0-3.76-13l1.49-.69c5.33,12.75,4.91,27.06,3.83,40.56a415,415,0,0,1-10.76,60.19c-2.71,11.32-8.63,27.61-12.44,38.82-9,26.95-15.56,55.82-22.38,83.45-6,24.65-2.59,50.81,6.16,74.4a146.31,146.31,0,0,0,8.16,18.47c3.24,5.88,7.11,11.58,9.57,18.09a101.26,101.26,0,0,1,4.79,20c2.66,19.11,5.22,43.65-8,59.6-4.87,5.51-11.72,10.27-19.37,10a34.21,34.21,0,0,1-8.9-2.3c-32-13.1-18.48-58.94-8.81-83.36,6.71-14.47,8.91-23,5.25-38.8-3-13.07-8.71-25.67-17.86-35.56-4-4.22-8.27-8.4-13.48-11.07a8.68,8.68,0,0,1-2.28-1.69l1.32-1.14c8.37,9.77,15.61,21.13,17.83,34,1.5,9.74.94,21.78-7,28.8-17,12-29.88-7.2-32.9-22.57-1.56-6.34-.77-13,.26-19.34s2.28-12.65,3.83-18.88c10.19-42.92,30.88-64.15,18.3-111.26a128.08,128.08,0,0,0-11.69-28.69c-1.24-2.09-2.83-3.88-3.78-6.21l1-.39c11.86,31-5,79.39-17.56,108.89-3.68,8.6-7.65,17.08-11.71,25.51-8.07,16.86-14.19,34.74-16.74,53.31-1.24,9.22-1.39,18.85,1.74,27.73Z"/><path class="cls-11" d="M404.39,339.07c12.23-22.19.75-48.28-12.7-67.14-9.26-13.11-20.4-25.12-27.6-39.62-11.19-21.79-9.82-49.37,3.67-69.89l1.53,1c-3.48,5-9,7.66-12.69,12.21a113.73,113.73,0,0,0-10.41,13.91C328.33,218,320.72,258,335.68,289.12c6.32,13.06,17.38,23.38,24.9,35.91,4.42,7.72,6.42,16.43,8.89,24.88,5.31,21,11.91,48.73,1.29,68.87l-.32-.23a58.93,58.93,0,0,0,3.9-4.84,131.53,131.53,0,0,0,9.83-15.88c-1.9,3.7-3.92,7.33-6.13,10.86A79.62,79.62,0,0,1,369.72,420a48.59,48.59,0,0,0,3.89-9.48c4.95-19.23-.41-41.38-5.37-60.24-1.65-5.56-3.19-11.23-5.26-16.66a58,58,0,0,0-8.6-15c-7-9.38-15.09-18.09-20.27-28.72-15.32-31.62-7.88-72.53,10.45-101.39a115,115,0,0,1,10.62-14.12c3.69-4.51,9.29-7.29,12.58-12l1.53,1c-10.71,16.19-13.65,37-8.62,55.69a82.83,82.83,0,0,0,10.67,22.94c10.9,16.83,25.4,31.52,33,50.36,6.27,14.67,8.42,32.37,0,46.65Z"/><path class="cls-9" d="M276.86,0c-9.53,9.42-20.12,18-27.61,29.24a72.3,72.3,0,0,0-10.84,51c5.66,30.82,28.53,57,28.56,89.31.07,9.07-1.77,18.36-6.39,26.34L259,194.71c12.71-12,17.74-29.43,23-45.67,2.63-8.28,5.39-16.53,6.61-25a48.64,48.64,0,0,0-2.78-25.24c-3-8.07-7.35-15.69-10.48-23.87a127.54,127.54,0,0,1-7-25.19c-2.36-16.18-4.17-37.31,8.57-49.69Zm0,0c-16.69,16.35-8.28,55-.37,74.42,7,17,17,30.21,13.8,49.8-1.21,8.74-4,17.09-6.58,25.37-5.23,16.5-10.31,34.23-23.31,46.57l-5,4.67,3.42-5.9c8.94-15.58,7.07-34.9,1.63-51.43C252.36,118.3,235,94.59,236.21,67a72.85,72.85,0,0,1,12.41-38.16C256.33,17.66,267.08,9.19,276.86,0Z"/><path class="cls-9" d="M400.45,791.57c6.42,22.55,4,46.89-2.85,69.07-.68,2-2.51,7.14-3.19,9-.87,2.05-2.9,6.69-3.81,8.78-1.5,3.37-4.13,8-5.79,11.38l-1.59-.9c1.7-2.33,4.54-2.82,6.68-4.57,20-14.35,38.52-32.61,47.58-55.86,5.23-12.86,5.4-26.78,6.92-40.41,1.64-13.09,4.93-28.87-5.4-39.24,10.76,10,7.94,26.29,6.51,39.36-.73,6.83-.93,13.73-1.69,20.62-1.88,21-13,40-27.25,55.07a158.88,158.88,0,0,1-23.47,20.49c-.69.44-2.5,1.81-3.23,2.26-1.13.69-2.32,1.22-3.41,1.88a5.77,5.77,0,0,0-1.65,1.3l-1.59-.9c1.68-3.31,4.29-7.9,5.79-11.22.92-2.11,3-6.64,3.81-8.67.67-1.85,2.57-7,3.28-8.89s1.21-4,1.82-6c5.74-20.1,7.54-42.07,2.53-62.53Z"/><path class="cls-9" d="M385.91,979.22c36.93,14.19,64.93-35.8,69.95-66.16,4.46-28.77,3-58,5.46-87,.44-7.26,1-14.59,2.81-21.72,3.51-14.22,9.52-27.63,15.93-40.68,4.76-9.8,9.86-19.44,14.14-29.45,7.53-18.66,8.26-39.1,10.51-59,5.5,28.64,8.36,58.49,3.09,87.37-1.45,7.84-6.61,18.19-9.47,25.7-5.33,13.92-15.37,37.36-12.1,51.87,2.23,9.82,14.55,8.41,21.49,4.67,7.89-4.24,12.52-12.61,15.37-20.87a91,91,0,0,0,4.5-26.48c.13-9-1.52-17.92-3.11-26.86a234.83,234.83,0,0,1-3.82-54.5c1.4-36.1,14.68-74.76,46.31-95.12l1,1.47c-3,2.38-4.48,6.58-5.86,10.16-1.39,3.85-2.47,7.89-3.84,11.81-7.78,23.59-10,48.66-9.32,73.41a310.4,310.4,0,0,0,5.43,49.3c4.89,24.08,10.34,50.53-1.66,73.46C541.09,863.28,517.76,876,501,894.11a120.47,120.47,0,0,0-24.95,42.54C471.19,952,465.5,969.62,473,985a32.73,32.73,0,0,1-3.45-11.88c-1.19-12.49,2.46-24.8,6.21-36.58,22-70.85,93.39-65.31,81.76-144.66-1.73-12.29-4.79-24.42-6.65-36.72-4.28-28.76-5.27-58.23-.29-87a173.18,173.18,0,0,1,6.05-24.24C558,640,559,636,560.44,632.07s2.92-8.21,6.53-11l1,1.47a91,91,0,0,0-10.66,8.28A95.71,95.71,0,0,0,534,663.57c-12.66,29.16-13.46,62.14-9.76,93.32,1.73,13.56,5.5,26.8,5.34,40.64a91.05,91.05,0,0,1-1.31,13.72c-2.38,13.3-7.07,28.31-19.64,35.32-6,3-14.77,4.88-20.49.36-12.15-10.62,3.6-46.37,8.49-59.3,1.81-4.35,6.08-14.65,7.66-18.93,3.45-10.74,4.14-22.13,4.42-33.37a275.48,275.48,0,0,0-4.59-54.09l1.68-.07c-1.9,18-3.23,36.61-10.19,53.61-13.07,29.61-32.46,58-33.13,91.34-2.56,29-1.22,58.26-5.91,87.06-2.5,14.39-8.47,28-16.34,40.28-11.68,18.19-31.64,35-54.32,25.76Z"/><path class="cls-12" d="M187.28,981.89c-.16-20.5-.25-106.53-1.13-124.79-.23-12.46-.49-24.93-2.3-37.26-.63-4.1-1.43-8.15-2.38-12.19a677.85,677.85,0,0,1-19.16-123.3c-2-33.24-1.25-67,6.82-99.52-.75-30.56-2.32-64.16-5.95-95.53-.81-6.89-2.81-24.76-3.61-31.84l-2.38-21.21c-.82-6.86-1.75-13.89-.87-20.82.32-12.42,5.61-23.22,21.22-20.34a19.09,19.09,0,0,1,2.58.65,9.55,9.55,0,0,1,3.13,3.13c2.52,3.8,3.83,8.12,5.07,12.3s3,8.2,4.27,12.44c3.64,12.67,5.88,25.67,8.89,38.47,2.11,8.49,4.05,17.1,5.39,25.77,4.23,25.9,5.7,52.49,14.51,77.41-9.06-24.82-10.8-51.44-15.29-77.28-1.42-8.67-3.46-17.15-5.62-25.66-3.07-12.78-5.38-25.74-9.08-38.34-1.29-4.15-3-8.2-4.33-12.42s-2.56-8.31-5-11.9a8.47,8.47,0,0,0-2.62-2.64l-.22-.09-.39-.09-1.59-.34C164,393.91,158,402.83,158,415.14c-1,7,.05,14,.85,20.91l4.84,42.43c4.45,35.38,6.56,71.09,7.36,106.7-8,32.31-8.9,65.94-7,99.06a697.6,697.6,0,0,0,18.72,123.09,155.58,155.58,0,0,1,3.63,24.77c2.13,34.92.8,114.13.8,149.79Z"/><path class="cls-12" d="M226,562.93s13.34,55.85,13.33,55.89c2.84,19.3,8.94,45.31,24.76,57.94,1.53,1.46,1.05,4,2,5.4l.12.11a.3.3,0,0,0,.13,0c3.72.08,7.57.79,11.24,0l3.24-.72c4.11-1,8.71-1.71,12.22-4a4.9,4.9,0,0,0,1.93-5.3,11.52,11.52,0,0,0,1.77-5.23c.95-9.21-.64-18.56-2.74-27.54-2.56-10.67-5.43-22.3-7.28-33.06A220.21,220.21,0,0,1,284.15,584c-1.2-15-2.45-29.93-4.66-44.75-1.6-13.49-6.71-32.39-23.14-32.77-8.5-.72-17.68,2.34-23.23,9a32.62,32.62,0,0,0-6.63,14,77.57,77.57,0,0,0-3.79,38c1.79,4.5,3.61,9.2,6.84,12.88-3.32-3.62-5.25-8.29-7.14-12.77a77.92,77.92,0,0,1,3.2-38.43c1.31-6.53,4.84-13.87,10.52-18.17,7.88-6.41,22.78-8.53,31.23-2.51,9.63,7,12.29,19.44,13.86,30.48,2.27,14.89,3.57,29.88,4.83,44.85a215.84,215.84,0,0,0,2.69,22.27c1.9,10.65,4.72,22.36,7.23,33,2,8.69,5,25.21,1.21,33.28a4,4,0,0,1-.55.79l.26-.8c1.1,5.74-4.55,8.25-9.09,9.4-3.12.91-6.6,1.54-9.77,2.28s-6.94.2-10.12.05c-.88,0-2.3.07-3-.79-1.37-1.62-.75-3.95-1.94-5.35a41.49,41.49,0,0,1-8-8.58c-10-14.83-14.24-33.13-16.59-50.37-3.58-16.49-8.87-39.78-12.33-56.06Z"/><path class="cls-12" d="M307.62,664.35c-11.32-13.11-15-39-16.47-55.94a724.49,724.49,0,0,1-8.86-78.21c-.27-6.56-.19-13.31,1.79-19.77,2.83-9.7,11.22-18,21.45-19.39,14.29-2.14,25.89,9.89,29.69,22.68,3,9.46,3.59,19.53,4.44,29.31,1.83,19.62,1.8,39.31,3.2,58.94a374.26,374.26,0,0,1,1.45,39.33c-.37,4.29,1,17.14-4,18.49l0-.23a.18.18,0,0,1,.14.13c0,.07,0,0,0,.07,0,1.24-.06,2.67-.18,3.91,0,2.62-3.35,2.72-5.25,3.25l-10.31,2.55-5.15,1.27c-3.34,1.06-7.37,1.49-9.88-1.51-1.14-1.41-1.25-3.29-2-4.88Zm0,0c.78,1.58.9,3.47,2.05,4.86,2.48,2.93,6.52,2.54,9.83,1.44l5.15-1.3c2-.44,11.05-2.85,12.87-3.22a4.56,4.56,0,0,0,2.22-1.26c.55-1.52.23-3.58.57-5.08l0-.23a2.79,2.79,0,0,0,1.82-1.38c2.54-5.2,1.58-11.27,1.82-16.88.34-19.7-2.4-39.25-3.34-58.89-.71-13.11-1.38-26.19-2.64-39.22-1.14-12.09-1.69-24.57-7.31-35.53-4.72-8.87-14.32-16.4-24.83-14.76-9.54,1.28-17.34,8.94-20.07,18-1.9,6.13-2.15,12.71-2,19.21a725.71,725.71,0,0,0,7.74,78.22c1.32,17,4.88,42.75,16.12,56Z"/><path class="cls-12" d="M263.35,677.16c-2.68-10.72-5.16-21.52-7.54-32.31a18,18,0,0,1-.58-3.81c-.23-6,6.1-8.44,10.73-10l6.92-2.58c5.23-1.9,10.13-4.54,14.59.53,3.29,4.1,4.12,9.29,4.88,14.23,1.51,9.75,2.36,19.53,3.63,29.28-2-9.62-3.41-19.38-5.17-29-.87-4.6-1.74-9.63-4.77-13.25-3.73-4.27-8.2-1.35-12.5.12l-6.91,2.52c-3.28,1.28-6.92,2.11-8.83,5.11s-.09,7,.33,10.16q2.81,14.48,5.22,29Z"/><path class="cls-12" d="M307.64,664.34c-1.72-9.2-3.3-18.62-4.77-27.88l-.45-2.79c-1.21-5.3.39-11.29,6.14-12.23l11.93-3.22c12.62-4.53,15.14,1.22,16,12.85.39,2.73,1.27,9.41,1.69,12.23.72,5.45,1.45,10.91,2.08,16.38-1.12-5.39-2.15-10.8-3.17-16.2-.89-4.72-2.18-11.57-2.73-16.29-1.45-9.42-5.06-9.9-13.35-7.05l-12,3.17c-5,.71-5.82,5.9-5,10.13l.35,2.8c1.18,9.3,2.29,18.79,3.22,28.1Z"/><path class="cls-12" d="M340.28,552.37c11.92-.3,19.21-20,22.5-29.65l1.68-5.35c0,.21,5.27-31.16,5.26-31.12,1.82-10.37,4.19-20.68,6.88-30.86a292.61,292.61,0,0,0,5.61-31c.69-5.21,1.33-10.43,2-15.66,1.75-15.69,2.43-31.8,7.88-46.81,2.74-7.4,7.15-15.28,14.8-18.6a20.24,20.24,0,0,1,16.13,0c12.47,6.44,10.82,25.16,10.15,37-.53,7.89-1.53,23.65-2.06,31.53-1.91,26.07-5.95,52.54-8.89,78.52-4.05,28.7-13.07,56.5-15.11,85.48-2.08,23.55.4,47.66,9,69.79a146.94,146.94,0,0,1-8.45-30.41c-5.23-31.44.61-63.33,7.32-94,2.16-10.31,4.23-20.62,5.58-31,2.86-25.93,6.84-52.42,8.68-78.44.47-7.83,1.49-23.7,2-31.53.92-13.34,2.41-36.69-16.25-36.67-21.76.28-25.38,33.09-27.43,49.65-1,10.46-2.21,21-3.73,31.39a296.47,296.47,0,0,1-5.88,31.11c-2.77,10.16-5.21,20.37-7.11,30.74,0,0-5.67,31.07-5.69,31.1l-1.76,5.35c-3.45,9.65-11.05,29.32-23,29.47Z"/><path class="cls-12" d="M313.22,711.12c9.34-16.65,23-35.09,41.37-42.19,12.65-4.32,24.79-9.94,37.54-14,12.73-3.6,25.28-8.89,35.13-17.92s17.52-20.09,27-29.51c4.68-4.75,9.27-9.6,14-14.35,21.17-21.57,39.73-33.62,71-32.06a136.24,136.24,0,0,1,20,2.65c6.56,1.48,14,4,17.34,10.41l.11.19v7.72l-.63.26a109.43,109.43,0,0,0-13.68,6.89c-3.18,2-6.4,4.09-8.74,7a6.72,6.72,0,0,0-1.52,3.29l-.17.19c-4.16,4.84-14.39,16.67-18.39,21.31s-14.49,16.18-18.8,21c-6.25,7-13.31,13.15-18.34,21.06-11,18.31-22.79,38.1-36.38,54.64-19.33,24.66-43.65,44.76-63.84,68.65-11.93,14.22-24.27,29.49-42,36.57,17.62-7.3,29.72-22.65,41.48-37,19.85-24.16,44.1-44.35,63.22-69.12,13.45-16.61,25-36.37,36-54.69,5.06-8,12.26-14.38,18.49-21.35,7.23-8,18-19.86,24.82-28.06l12.21-14.21-.22.48c1.52-6.9,12.17-12.06,18-15.18,2.33-1.17,4.67-2.27,7.1-3.28l-.62.93v-6.81l.1.44c-4.82-8.55-17-9.65-25.79-11.08-13.05-1.83-26.61-1.58-39.24,2.42-22.58,7.12-38.13,26.15-54.42,42.28C445.89,618,438.2,629.1,428.17,638c-10,9.09-22.82,14.4-35.7,18-12.72,4-25,9.47-37.64,13.63-18.32,6.83-32.12,25.08-41.61,41.52Z"/><path class="cls-12" d="M375.25,977.91a300.85,300.85,0,0,1-11.93-59.34c-.64-6.58-.57-13.56-1.05-20.16-.94-23.51-2.2-47.1-.68-70.61a49.85,49.85,0,0,1,1-7.51,5.47,5.47,0,0,1,1-2.31,5.54,5.54,0,0,0-.84,2.34,60.85,60.85,0,0,0-.63,7.51c-.4,25.18,1.22,50.37,2.39,75.51.26,25.2,5,50.1,10.74,74.57Z"/><path class="cls-12" d="M166.59,462.68c4.17.95,8.4.6,12.63.48,2.23-.1,7.39-.39,9.56-.46,1.08,0,2.16-.07,3.25,0-7.07,2.5-18.84,4.22-25.44,0Z"/><path class="cls-12" d="M179.31,516.55c4.6-5,13.1-5.22,19.4-4.38,3.34.63,3.41.67,0,1-6.51.77-13.3.64-19.37,3.4Z"/><path class="cls-12" d="M175.92,523.29c3.34-4.64,10-5.77,15.26-4.34,2.6.86,2.64.93-.11,1-5.3.21-10.28.92-15.15,3.37Z"/><path class="cls-12" d="M175.92,584.16a34.63,34.63,0,0,1,25.64-12.09,102.49,102.49,0,0,0-25.64,12.09Z"/><path class="cls-12" d="M171.26,637.53c8.93-5.08,19.26-7.47,29.5-7.78A179.15,179.15,0,0,0,231,627a77.32,77.32,0,0,1-14.89,3.58c-6.87,1.16-14,1-20.92,1.48a92.29,92.29,0,0,0-23.91,5.49Z"/><path class="cls-12" d="M182.91,704a108.32,108.32,0,0,1,33.32-20.3c1-.38,3.76-1.32,4.83-1.69s3.89-1.14,4.92-1.41c1.6-.36,3.4-.75,5-1.05-17,6.14-32.91,14.64-48.07,24.45Z"/><path class="cls-12" d="M245.76,594.63c4.55-4.37,13.72-9.16,19.92-6.06-7.14-.08-13.29,3.91-19.92,6.06Z"/><path class="cls-12" d="M245.76,605.2c4.82-4.19,13.51-8.47,19.92-6.27-6.93.75-13.29,4.37-19.92,6.27Z"/><path class="cls-12" d="M296,576.1c8-5.19,19.06-7.93,28.13-4-9.64-1.07-18.93,1.43-28.13,4Z"/><path class="cls-12" d="M302.91,586c6-4,14-6.38,21.2-4.31-7.31.76-14,2.85-21.2,4.31Z"/><path class="cls-12" d="M395.07,410.22c2.93-1.66,6.6-1.35,9.77-.66a24.84,24.84,0,0,1,6.85,2.75c.69.45,1.38.89,2,1.41-.83-.12-1.62-.31-2.4-.5-5.28-1.2-10.78-3.09-16.25-3Z"/><path class="cls-12" d="M386.45,463.45c.39-2.2,3.94-2.07,5.64-1.95a38,38,0,0,1,17,7c-3.47-.81-8.15-2.58-11.55-3.71-2.31-.65-9.57-3.75-11.06-1.34Z"/><path class="cls-12" d="M384.1,468.51a16.65,16.65,0,0,1,3.72,1c2.38.84,4.77,1.59,7.21,2.21a90.88,90.88,0,0,0,14.86,2.36c1.27.13,2.54.17,3.83.35a37.57,37.57,0,0,1-22.85-2.27c-2.42-.95-4.49-2.55-6.77-3.69Z"/><path class="cls-12" d="M370.59,551.27c9.52.58,21.23,5.53,27.16,13.19-8.33-5.84-17.69-9.64-27.16-13.19Z"/><path class="cls-12" d="M375.25,611.88c-5.47.6-10.93.8-16.39,1.26-3.49.46-13.67.55-14.7,4.45a3,3,0,0,1,.69-2c5.79-5.73,22.71-5.07,30.4-3.7Z"/><path class="cls-12" d="M370.59,621.76c10.52-1.63,26.38,2.65,33.8,10.5A66,66,0,0,0,388,625.39a100.93,100.93,0,0,0-17.45-3.63Z"/><path class="cls-12" d="M492.94,594.63c-5-3.82-9.53-8.06-16-8.68,6.47-2.42,13.34,3,16,8.68Z"/><path class="cls-12" d="M473.7,598.78c13.93.25,26.33,10.58,34.58,21.05,1.15,1.61,2.29,3.22,3.36,4.88-1.42-1.39-2.76-2.82-4.11-4.24-9.5-9.45-20.38-18.81-33.83-21.69Z"/><path class="cls-12" d="M426.54,665.5c6.56,19.14,15.53,53.79,11.66,73.44.75-10.86-1.39-21.67-3.12-32.33-2.3-12.5-5.83-28.55-8.54-41.11Z"/><path class="cls-12" d="M270.34,698.14c-3.09,10.73-6.22,21.46-8.46,32.4s-4.07,22-5.78,33a167.28,167.28,0,0,1,14.24-65.41Z"/><path class="cls-12" d="M276,740.54c7.51,27.67,23.46,54.9,49.24,68.92A88.16,88.16,0,0,0,348.1,818a79.15,79.15,0,0,1-13.7-3.19c-31.95-10.44-52.55-42.3-58.36-74.25Z"/><path class="cls-12" d="M273.84,829.87c23.19,5.22,47.28,2.44,70.43-1.6,3.33-.62,6.64-1.33,10-1.9-24.69,7.71-55.53,12.15-80.43,3.5Z"/><path class="cls-12" d="M235.37,825.2c-17.5,4-37.73.9-52.46-9.6,16.24,8,34.47,10.8,52.46,9.6Z"/><path class="cls-12" d="M221.57,849.17c26,5.92,56.16,13.22,82.57,7.51-24.51,8.49-58.64.92-82.57-7.51Z"/><path class="cls-12" d="M158.78,405.32c-1.06-2.17-1.94-4.4-2.82-6.63,4.9-3.47,10.46-6.26,16.5-7a13.49,13.49,0,0,1,6.17.69c.29,1.27.57,2.54.79,3.83-.57-1.1-1.09-2.23-1.59-3.35l.3.28c-5.55-.7-10.93,1.7-15.92,3.87-1.7.78-3.41,1.61-5.05,2.49l.29-.78c.5,2.17,1,4.35,1.33,6.58Z"/><path class="cls-12" d="M399.22,350.48c-.32-3-.51-6.08-.66-9.12,7.86-2.3,16.29-3.11,24.33-1.26a25.13,25.13,0,0,1,7.67,3.31,13.59,13.59,0,0,1-.52,8.08,15.67,15.67,0,0,0-.57-7.54l.26.33a34.63,34.63,0,0,0-14.89-3.2,78.6,78.6,0,0,0-15.46,1.36l.47-.61c-.15,2.88-.34,5.77-.63,8.65Z"/><path class="cls-12" d="M551.27,599.06a191.38,191.38,0,0,1,28.2-15.87l-.29.35a2.18,2.18,0,0,0,.11-.76,2.6,2.6,0,0,0-1.34-2.11h.24c-.81.25-1.62.48-2.44.71q1.14-.67,2.31-1.29a3.32,3.32,0,0,1,2.24,4l-.25.15a191.74,191.74,0,0,1-28.78,14.81Z"/></g></g></svg>